<svg xmlns:xlink="http://www.w3.org/1999/xlink" xmlns="http://www.w3.org/2000/svg" class="undefined icon icon--social fill-undefined" style="width:150px;transform:rotate(undefineddeg);height:45px" viewBox="0 0 143 42" width="150"  height="45" ><g fill-rule="evenodd" clip-rule="evenodd" fill="#161616"><path d="M.5 9A8.5 8.5 0 019 .5h125a8.5 8.5 0 018.5 8.5v24a8.5 8.5 0 01-8.5 8.5H9A8.5 8.5 0 01.5 33V9zM9 1.5A7.5 7.5 0 001.5 9v24A7.5 7.5 0 009 40.5h125a7.5 7.5 0 007.5-7.5V9a7.5 7.5 0 00-7.5-7.5H9z" fill="#161616"></path><path d="M37.974 19.869c-.025-2.581 2.126-3.837 2.225-3.896-1.218-1.767-3.104-2.008-3.769-2.027-1.584-.164-3.123.945-3.933.945-.823 0-2.065-.927-3.404-.898-1.728.024-3.342 1.018-4.227 2.558-1.824 3.143-.463 7.76 1.285 10.3.878 1.245 1.9 2.635 3.24 2.586 1.308-.054 1.797-.83 3.378-.83 1.567 0 2.025.83 3.391.8 1.408-.024 2.292-1.252 3.137-2.507 1.01-1.425 1.42-2.83 1.433-2.903-.032-.009-2.727-1.031-2.756-4.128zM36.447 9c-1.02.045-2.296.7-3.03 1.557-.648.757-1.23 1.993-1.08 3.156 1.146.084 2.323-.575 3.056-1.436.706-.876 1.187-2.067 1.054-3.277zM52.427 22.246l1.748-5.112h.049l1.747 5.112h-3.544zm.807-7.05L49 26.848h1.891l1.076-3.15h4.47l1.07 3.15h1.926L55.2 15.195h-1.965zM64.514 25.459c-1.342 0-2.243-1.145-2.243-2.859 0-1.694.901-2.85 2.243-2.85 1.365 0 2.261 1.13 2.261 2.85 0 1.738-.896 2.859-2.261 2.859zm.462-7.195c-1.193 0-2.234.59-2.722 1.502h-.032v-1.414h-1.698V29.66h1.754v-4.207h.041c.504.943 1.472 1.485 2.69 1.485 2.146 0 3.569-1.695 3.569-4.337 0-2.633-1.43-4.336-3.602-4.336zM73.925 25.459c-1.342 0-2.243-1.145-2.243-2.859 0-1.694.901-2.85 2.243-2.85 1.365 0 2.261 1.13 2.261 2.85 0 1.738-.897 2.859-2.261 2.859zm.462-7.195c-1.193 0-2.234.59-2.722 1.502h-.033v-1.414h-1.699V29.66h1.756v-4.207h.04c.505.943 1.473 1.485 2.691 1.485 2.146 0 3.569-1.695 3.569-4.337 0-2.633-1.43-4.336-3.602-4.336zM88.003 20.266l-1.292-.314c-1.512-.373-2.13-.857-2.13-1.68 0-1.035.97-1.745 2.381-1.745 1.414 0 2.382.702 2.489 1.865h1.771C91.167 16.382 89.466 15 86.988 15c-2.504 0-4.269 1.382-4.269 3.392 0 1.625 1.003 2.627 3.154 3.143l1.52.364c1.52.37 2.162.913 2.162 1.817 0 1.041-1.064 1.801-2.544 1.801-1.543 0-2.672-.76-2.8-1.914h-1.8c.114 2.108 1.87 3.44 4.471 3.44 2.78 0 4.53-1.366 4.53-3.547 0-1.703-1.004-2.663-3.41-3.23zM95.197 16.34h-1.764v2.013h-1.24v1.38h1.24v4.872c0 1.646.675 2.293 2.406 2.293.39 0 .78-.033.975-.082v-1.37a6.37 6.37 0 01-.577.038c-.712 0-1.04-.338-1.04-1.066v-4.684h1.626v-1.381h-1.626v-2.012zM101.819 25.517c-1.423 0-2.267-1.075-2.267-2.918 0-1.823.844-2.915 2.267-2.915s2.271 1.083 2.271 2.915c0 1.843-.848 2.918-2.271 2.918zm0-7.269c-2.47 0-4.055 1.68-4.055 4.351 0 2.682 1.569 4.356 4.055 4.356 2.487 0 4.057-1.674 4.057-4.356 0-2.67-1.578-4.35-4.057-4.35zM109.037 19.798h-.039v-1.446h-1.676v8.497h1.755V21.81c0-1.196.7-1.955 1.83-1.955.341 0 .649.049.787.105v-1.632a2.746 2.746 0 00-.6-.064c-1.006 0-1.786.572-2.057 1.534zM113.854 21.817c.09-1.284.966-2.155 2.177-2.155 1.219 0 2.057.856 2.097 2.155h-4.274zm2.177-3.57c-2.403 0-3.958 1.731-3.958 4.393 0 2.658 1.545 4.316 4.032 4.316 1.935 0 3.446-1.06 3.682-2.601h-1.665c-.238.735-1.001 1.193-1.976 1.193-1.381 0-2.3-.952-2.3-2.407v-.104h6.038v-.598c0-2.578-1.487-4.191-3.853-4.191z" fill="#161616"></path></g></svg>