<svg xmlns:xlink="http://www.w3.org/1999/xlink" xmlns="http://www.w3.org/2000/svg" class="undefined icon icon--action fill-orange--base" viewBox="0 0 24 24" style="width: 51px; transform: rotate(0deg); height: 51px;" width="51"  height="51" ><g fill="#FF8700"><path fill-rule="evenodd" d="M15 4H9a2 2 0 00-2 2v12a2 2 0 002 2h6a2 2 0 002-2V6a2 2 0 00-2-2zM9 2a4 4 0 00-4 4v12a4 4 0 004 4h6a4 4 0 004-4V6a4 4 0 00-4-4H9z" clip-rule="evenodd" fill="#FF8700"></path><rect width="4" height="2" x="10" y="17" rx="1" fill="#FF8700"></rect></g></svg>