<svg xmlns:xlink="http://www.w3.org/1999/xlink" xmlns="http://www.w3.org/2000/svg" class="undefined icon icon--products fill-orange--base" viewBox="0 0 24 24" style="width: 51px; transform: rotate(0deg); height: 51px;" width="51"  height="51" ><g fill-rule="evenodd" clip-rule="evenodd" fill="#FF8700"><path d="M19 9H5v11h14V9zM5 7a2 2 0 00-2 2v11a2 2 0 002 2h14a2 2 0 002-2V9a2 2 0 00-2-2H5z" fill="#FF8700"></path><path d="M10 12.438V21h4v-8.888a4.976 4.976 0 01-.34-.278 5.69 5.69 0 01-1.41-1.972 5.688 5.688 0 01-1.41 1.972c-.25.224-.53.429-.84.604z" fill="#FF8700"></path><path d="M10.412 5.627c.356.445.532.927.577 1.232a2.87 2.87 0 01-.401.08C10.292 6.98 9.93 7 9.5 7c-.508 0-.916-.177-1.173-.397C8.074 6.386 8 6.167 8 6c0-.167.074-.386.327-.603C8.584 5.177 8.992 5 9.5 5c.137 0 .494.104.912.627zm-.569 3.37C9.73 8.998 9.616 9 9.5 9 7.567 9 6 7.657 6 6s1.567-3 3.5-3c.98 0 1.865.601 2.5 1.41.635-.809 1.52-1.41 2.5-1.41C16.433 3 18 4.343 18 6c0 1.612-1.483 2.926-3.342 2.997.1.12.211.236.333.344.537.48 1.29.823 2.368.67a1 1 0 01.282 1.979c-1.721.246-3.052-.327-3.982-1.156a5.69 5.69 0 01-1.409-1.972 5.69 5.69 0 01-1.41 1.972c-.929.83-2.26 1.402-3.981 1.156a1 1 0 01.282-1.98c1.079.154 1.831-.19 2.368-.669.122-.108.233-.225.334-.345zM16 6c0 .167-.074.386-.327.603-.257.22-.665.397-1.173.397-.431 0-.792-.02-1.088-.06a2.87 2.87 0 01-.4-.081c.044-.305.22-.787.576-1.232.418-.523.775-.627.912-.627.508 0 .916.177 1.173.397.253.217.327.436.327.603z" fill="#FF8700"></path></g></svg>