<svg xmlns:xlink="http://www.w3.org/1999/xlink" xmlns="http://www.w3.org/2000/svg" class="undefined icon icon--social fill-undefined" style="width:150px;transform:rotate(undefineddeg);height:45px" viewBox="0 0 143 42" width="150"  height="45" ><g fill-rule="evenodd" clip-rule="evenodd" fill="#161616"><path d="M.5 9A8.5 8.5 0 019 .5h125a8.5 8.5 0 018.5 8.5v24a8.5 8.5 0 01-8.5 8.5H9A8.5 8.5 0 01.5 33V9zM9 1.5A7.5 7.5 0 001.5 9v24A7.5 7.5 0 009 40.5h125a7.5 7.5 0 007.5-7.5V9a7.5 7.5 0 00-7.5-7.5H9z" fill="#161616"></path><path d="M52.281 19.617v1.688h4.047c-.122.949-.438 1.64-.921 2.123-.59.586-1.511 1.235-3.126 1.235-2.492 0-4.439-2.004-4.439-4.488 0-2.484 1.947-4.488 4.44-4.488 1.343 0 2.322.527 3.048 1.205l1.195-1.19C55.51 14.738 54.168 14 52.28 14 48.87 14 46 16.772 46 20.175s2.869 6.175 6.281 6.175c1.84 0 3.23-.602 4.318-1.733 1.118-1.114 1.465-2.68 1.465-3.947 0-.39-.03-.752-.09-1.053h-5.693zM71.393 24.783c-1.208 0-2.25-.994-2.25-2.41 0-1.43 1.042-2.409 2.25-2.409s2.252.978 2.252 2.41c0 1.415-1.044 2.41-2.252 2.41zm0-6.384c-2.203 0-4.002 1.67-4.002 3.975 0 2.29 1.8 3.975 4.002 3.975 2.204 0 4.003-1.686 4.003-3.975 0-2.304-1.799-3.975-4.003-3.975zM62.664 24.783c-1.208 0-2.25-.994-2.25-2.41 0-1.43 1.042-2.409 2.25-2.409s2.252.978 2.252 2.41c0 1.415-1.044 2.41-2.252 2.41zm0-6.384c-2.203 0-4.002 1.67-4.002 3.975 0 2.29 1.799 3.975 4.002 3.975 2.204 0 4.003-1.686 4.003-3.975 0-2.304-1.799-3.975-4.003-3.975zM80.1 24.783c-1.208 0-2.22-1.008-2.22-2.395 0-1.4 1.012-2.424 2.22-2.424 1.193 0 2.13 1.024 2.13 2.424 0 1.387-.937 2.395-2.13 2.395zm2.01-5.498h-.061c-.394-.465-1.147-.886-2.1-.886-1.991 0-3.82 1.746-3.82 3.99 0 2.228 1.829 3.96 3.82 3.96.953 0 1.706-.422 2.1-.903h.06v.57c0 1.523-.816 2.336-2.13 2.336-1.071 0-1.735-.77-2.008-1.415l-1.524.632c.436 1.055 1.599 2.35 3.532 2.35 2.053 0 3.79-1.206 3.79-4.144v-7.137h-1.66v.647zM84.977 26.11h1.75V14.423h-1.75V26.11zM89.311 22.252c-.045-1.534 1.193-2.316 2.083-2.316.695 0 1.284.345 1.481.842l-3.564 1.474zm5.435-1.324c-.333-.889-1.342-2.53-3.413-2.53-2.052 0-3.758 1.61-3.758 3.974 0 2.229 1.691 3.978 3.956 3.978 1.827 0 2.882-1.116 3.323-1.763l-1.36-.903c-.454.661-1.073 1.098-1.963 1.098-.892 0-1.526-.405-1.933-1.205l5.331-2.197-.183-.452zM102.998 20.055h-2.489v-4.006h2.489c1.306 0 2.05 1.08 2.05 2.002 0 .906-.744 2.004-2.05 2.004zm-.045-5.632h-4.192v11.685h1.748v-4.427h2.444c1.938 0 3.843-1.4 3.843-3.63s-1.905-3.628-3.843-3.628zM107.761 26.11h1.748V14.423h-1.748V26.11zM113.594 24.78c-.574 0-1.37-.284-1.37-.992 0-.903.993-1.248 1.852-1.248.769 0 1.131.165 1.599.393a2.117 2.117 0 01-2.081 1.847zm.211-6.405c-1.267 0-2.578.557-3.121 1.792l1.553.645c.331-.645.951-.858 1.599-.858.903 0 1.823.542 1.839 1.504v.12c-.316-.18-.995-.45-1.823-.45-1.675 0-3.376.915-3.376 2.63 0 1.564 1.368 2.57 2.906 2.57 1.176 0 1.825-.525 2.234-1.142h.059v.903h1.689v-4.48c0-2.075-1.554-3.234-3.559-3.234zM121.508 23.698h-.06l-2.082-5.065h-1.881l3.118 7.08-1.778 3.94h1.823l4.811-11.02h-1.945l-2.006 5.065zM17.495 9.137a1 1 0 01.994-.01l18.946 10.629c1.362.764 1.362 2.724 0 3.488L18.489 33.872A1 1 0 0117 33V10a1 1 0 01.495-.863zm6.06 5.126l5.662 5.805 1.657-1.7-7.32-4.105zm9.125 5.119L30.614 21.5l2.066 2.118 3.776-2.118-3.776-2.118zm-1.806 5.25l-1.657-1.7-5.662 5.805 7.32-4.106zM19 30.541V12.458l8.82 9.043L19 30.543z" fill="#161616"></path></g></svg>