<svg xmlns:xlink="http://www.w3.org/1999/xlink" xmlns="http://www.w3.org/2000/svg" class="undefined icon icon--facilidades fill-orange--base" viewBox="0 0 24 24" style="width: 51px; transform: rotate(0deg); height: 51px;" width="51"  height="51" ><path fill-rule="evenodd" d="M5.348 3a1 1 0 011-1h10.435a1 1 0 011 1v2.428h2.478a1 1 0 011 1V15a1 1 0 01-1 1h-2.478v4H22v2h-5.157l-.06.002H6.348c-.02 0-.04 0-.06-.002H2v-2h3.348V3zm10.435 17H7.348v-9.286h8.435V20zM7.348 4v4.714h3.856l3.031-2.989 1.425 1.404-1.608 1.585h1.73V4H7.349zm10.435 3.428V14h1.478V7.428h-1.478z" clip-rule="evenodd" fill="#FF8700"></path></svg>