<svg xmlns:xlink="http://www.w3.org/1999/xlink" xmlns="http://www.w3.org/2000/svg" class=" icon icon--social fill-orange--base" viewBox="0 0 24 24" style="width: 22px; height: 22px;" width="24"  height="24" ><path d="M7.53 21.765c9.063 0 14.018-7.606 14.018-14.198 0-.217 0-.434-.01-.641A10.166 10.166 0 0024 4.339a9.902 9.902 0 01-2.83.786 4.976 4.976 0 002.166-2.763c-.95.57-2.003.983-3.127 1.21A4.874 4.874 0 0016.613 2c-2.718 0-4.925 2.235-4.925 4.988 0 .393.041.776.133 1.138-4.097-.207-7.724-2.194-10.156-5.215a5.055 5.055 0 00-.664 2.504c0 1.728.869 3.26 2.197 4.15a4.793 4.793 0 01-2.227-.621v.062A4.98 4.98 0 004.925 13.9a4.854 4.854 0 01-1.298.176c-.317 0-.623-.03-.93-.093.624 1.987 2.442 3.425 4.598 3.467A9.824 9.824 0 010 19.509a13.6 13.6 0 007.53 2.256z" fill="#161616"></path></svg>